<svg width="123" height="16" viewBox="0 0 123 16" fill="none" xmlns="http://www.w3.org/2000/svg">
<path d="M0.128906 1.05302V15.2529H5.60025C9.86121 15.2529 12.3706 12.6058 12.3706 8.09886C12.3706 3.59188 9.86121 1.05302 5.60025 1.05302H0.128906ZM3.10075 3.50332H5.24599C7.86358 3.50332 9.33966 5.13685 9.33966 8.1087C9.33966 11.179 7.90294 12.7928 5.24599 12.7928H3.10075V3.50332Z" fill="#FCFCFC"/>
<path d="M18.7787 6.37676C20.1072 6.37676 21.0322 7.30177 21.0814 8.71881H16.4071C16.5056 7.3313 17.4699 6.37676 18.7787 6.37676ZM21.1208 11.9465C20.8452 12.783 19.9891 13.2947 18.9066 13.2947C17.3912 13.2947 16.3776 12.2417 16.3776 10.6771V10.5H23.8564V9.6143C23.8564 6.31772 21.8687 4.23152 18.7492 4.23152C15.5707 4.23152 13.5435 6.43581 13.5435 9.88C13.5435 13.3242 15.5609 15.4399 18.8574 15.4399C21.4947 15.4399 23.453 14.0426 23.7679 11.9465H21.1208Z" fill="#FCFCFC"/>
<path d="M35.0668 8.41376C34.929 6.00282 33.0692 4.23152 30.1564 4.23152C26.9385 4.23152 24.872 6.39644 24.872 9.8308C24.872 13.3144 26.9385 15.4399 30.176 15.4399C33.02 15.4399 34.9094 13.8359 35.0766 11.3167H32.4C32.213 12.5074 31.416 13.1667 30.2056 13.1667C28.7196 13.1667 27.7848 11.9465 27.7848 9.8308C27.7848 7.75444 28.7196 6.49485 30.1957 6.49485C31.4455 6.49485 32.2327 7.29193 32.3902 8.41376H35.0668Z" fill="#FCFCFC"/>
<path d="M41.2191 6.37676C42.5476 6.37676 43.4726 7.30177 43.5218 8.71881H38.8475C38.9459 7.3313 39.9103 6.37676 41.2191 6.37676ZM43.5612 11.9465C43.2856 12.783 42.4295 13.2947 41.347 13.2947C39.8316 13.2947 38.818 12.2417 38.818 10.6771V10.5H46.2968V9.6143C46.2968 6.31772 44.3091 4.23152 41.1896 4.23152C38.0111 4.23152 35.9839 6.43581 35.9839 9.88C35.9839 13.3242 38.0013 15.4399 41.2978 15.4399C43.9351 15.4399 45.8934 14.0426 46.2083 11.9465H43.5612Z" fill="#FCFCFC"/>
<path d="M47.7158 15.2529H50.5893V9.07307C50.5893 7.63635 51.4159 6.6523 52.7936 6.6523C54.1516 6.6523 54.8207 7.46906 54.8207 8.90578V15.2529H57.6942V8.30551C57.6942 5.77649 56.3362 4.26104 53.9351 4.26104C52.272 4.26104 51.1699 4.98924 50.5499 6.35708H50.4909V4.41849H47.7158V15.2529Z" fill="#FCFCFC"/>
<path d="M60.2448 2.00756V4.41849H58.7786V6.59325H60.2448V12.3303C60.2448 14.446 61.2289 15.2923 63.7382 15.2923C64.3188 15.2923 64.8305 15.2333 65.1258 15.1742V13.0487C64.9486 13.0782 64.6632 13.0979 64.4074 13.0979C63.5316 13.0979 63.1183 12.6944 63.1183 11.858V6.59325H65.1258V4.41849H63.1183V2.00756H60.2448Z" fill="#FCFCFC"/>
<path d="M66.653 15.2529H69.5264V9.19116C69.5264 7.67571 70.3826 6.77038 71.839 6.77038C72.2621 6.77038 72.6557 6.83927 72.9018 6.93767V4.39881C72.6951 4.32993 72.3999 4.29056 72.0653 4.29056C70.786 4.29056 69.8512 5.01877 69.4871 6.35708H69.428V4.41849H66.653V15.2529Z" fill="#FCFCFC"/>
<path d="M77.8929 13.2848C76.8498 13.2848 76.1708 12.783 76.1708 11.9859C76.1708 11.1888 76.8104 10.7164 78.011 10.6377L80.2841 10.4803V11.2774C80.2841 12.4582 79.2214 13.2848 77.8929 13.2848ZM76.958 15.3809C78.3456 15.3809 79.6839 14.7117 80.2743 13.58H80.3333V15.2529H83.1084V7.82332C83.1084 5.6584 81.2879 4.23152 78.503 4.23152C75.7968 4.23152 73.9271 5.6584 73.8484 7.72492H76.4758C76.6136 6.93767 77.3418 6.3866 78.3849 6.3866C79.5658 6.3866 80.2841 6.95735 80.2841 8.00045V8.71881L77.578 8.8861C74.8128 9.05339 73.3072 10.1654 73.3072 12.1335C73.3072 14.0721 74.8718 15.3809 76.958 15.3809Z" fill="#FCFCFC"/>
<path d="M84.9997 15.2529H87.8732V0.374023H84.9997V15.2529Z" fill="#FCFCFC"/>
<path d="M93.9172 13.2848C92.8741 13.2848 92.1952 12.783 92.1952 11.9859C92.1952 11.1888 92.8348 10.7164 94.0353 10.6377L96.3085 10.4803V11.2774C96.3085 12.4582 95.2457 13.2848 93.9172 13.2848ZM92.9824 15.3809C94.3699 15.3809 95.7082 14.7117 96.2987 13.58H96.3577V15.2529H99.1327V7.82332C99.1327 5.6584 97.3122 4.23152 94.5274 4.23152C91.8212 4.23152 89.9515 5.6584 89.8728 7.72492H92.5002C92.638 6.93767 93.3662 6.3866 94.4093 6.3866C95.5901 6.3866 96.3085 6.95735 96.3085 8.00045V8.71881L93.6023 8.8861C90.8372 9.05339 89.3315 10.1654 89.3315 12.1335C89.3315 14.0721 90.8962 15.3809 92.9824 15.3809Z" fill="#FCFCFC"/>
<path d="M100.945 15.2529H103.819V9.07307C103.819 7.63635 104.645 6.6523 106.023 6.6523C107.381 6.6523 108.05 7.46906 108.05 8.90578V15.2529H110.924V8.30551C110.924 5.77649 109.566 4.26104 107.165 4.26104C105.502 4.26104 104.399 4.98924 103.779 6.35708H103.72V4.41849H100.945V15.2529Z" fill="#FCFCFC"/>
<path d="M116.741 15.3809C118.336 15.3809 119.585 14.5936 120.117 13.4029H120.166V15.2529H123V0.374023H120.127V6.26852H120.068C119.526 5.06797 118.316 4.29056 116.751 4.29056C114.055 4.29056 112.303 6.42596 112.303 9.82096C112.303 13.2356 114.045 15.3809 116.741 15.3809ZM117.696 6.61293C119.182 6.61293 120.146 7.88237 120.146 9.84064C120.146 11.7989 119.182 13.0585 117.696 13.0585C116.2 13.0585 115.246 11.8186 115.246 9.8308C115.246 7.86269 116.2 6.61293 117.696 6.61293Z" fill="#FCFCFC"/>
</svg>
