<svg width="123" height="16" viewBox="0 0 123 16" fill="none" xmlns="http://www.w3.org/2000/svg">
<path d="M0.128906 1.05253V15.2525H5.60025C9.86121 15.2525 12.3706 12.6053 12.3706 8.09837C12.3706 3.5914 9.86121 1.05253 5.60025 1.05253H0.128906ZM3.10075 3.50283H5.24599C7.86358 3.50283 9.33966 5.13636 9.33966 8.10821C9.33966 11.1785 7.90294 12.7923 5.24599 12.7923H3.10075V3.50283Z" fill="#ECEBED"/>
<path d="M18.7787 6.37627C20.1072 6.37627 21.0322 7.30129 21.0814 8.71833H16.4071C16.5056 7.33081 17.4699 6.37627 18.7787 6.37627ZM21.1208 11.946C20.8452 12.7825 19.9891 13.2942 18.9066 13.2942C17.3912 13.2942 16.3776 12.2412 16.3776 10.6766V10.4995H23.8564V9.61382C23.8564 6.31723 21.8687 4.23103 18.7492 4.23103C15.5707 4.23103 13.5435 6.43532 13.5435 9.87951C13.5435 13.3237 15.5609 15.4394 18.8574 15.4394C21.4947 15.4394 23.453 14.0421 23.7679 11.946H21.1208Z" fill="#ECEBED"/>
<path d="M35.0668 8.41327C34.929 6.00233 33.0692 4.23103 30.1564 4.23103C26.9385 4.23103 24.872 6.39595 24.872 9.83031C24.872 13.3139 26.9385 15.4394 30.1761 15.4394C33.02 15.4394 34.9094 13.8354 35.0766 11.3162H32.4C32.213 12.5069 31.416 13.1663 30.2056 13.1663C28.7196 13.1663 27.7848 11.946 27.7848 9.83031C27.7848 7.75395 28.7196 6.49436 30.1957 6.49436C31.4455 6.49436 32.2327 7.29144 32.3902 8.41327H35.0668Z" fill="#ECEBED"/>
<path d="M41.2191 6.37627C42.5476 6.37627 43.4726 7.30129 43.5218 8.71833H38.8475C38.9459 7.33081 39.9103 6.37627 41.2191 6.37627ZM43.5612 11.946C43.2856 12.7825 42.4295 13.2942 41.347 13.2942C39.8316 13.2942 38.818 12.2412 38.818 10.6766V10.4995H46.2968V9.61382C46.2968 6.31723 44.3091 4.23103 41.1896 4.23103C38.0111 4.23103 35.9839 6.43532 35.9839 9.87951C35.9839 13.3237 38.0013 15.4394 41.2978 15.4394C43.9351 15.4394 45.8934 14.0421 46.2083 11.946H43.5612Z" fill="#ECEBED"/>
<path d="M47.7159 15.2525H50.5893V9.07259C50.5893 7.63586 51.4159 6.65181 52.7936 6.65181C54.1516 6.65181 54.8207 7.46858 54.8207 8.9053V15.2525H57.6942V8.30502C57.6942 5.776 56.3362 4.26055 53.9351 4.26055C52.272 4.26055 51.1699 4.98876 50.5499 6.35659H50.4909V4.418H47.7159V15.2525Z" fill="#ECEBED"/>
<path d="M60.2448 2.00707V4.418H58.7786V6.59277H60.2448V12.3298C60.2448 14.4455 61.2289 15.2918 63.7382 15.2918C64.3188 15.2918 64.8305 15.2328 65.1258 15.1737V13.0482C64.9486 13.0777 64.6632 13.0974 64.4074 13.0974C63.5316 13.0974 63.1183 12.6939 63.1183 11.8575V6.59277H65.1258V4.418H63.1183V2.00707H60.2448Z" fill="#ECEBED"/>
<path d="M66.653 15.2525H69.5265V9.19067C69.5265 7.67523 70.3826 6.7699 71.839 6.7699C72.2621 6.7699 72.6557 6.83878 72.9018 6.93718V4.39832C72.6951 4.32944 72.3999 4.29008 72.0653 4.29008C70.786 4.29008 69.8512 5.01828 69.4871 6.35659H69.428V4.418H66.653V15.2525Z" fill="#ECEBED"/>
<path d="M77.8929 13.2843C76.8498 13.2843 76.1708 12.7825 76.1708 11.9854C76.1708 11.1883 76.8104 10.716 78.011 10.6372L80.2841 10.4798V11.2769C80.2841 12.4577 79.2214 13.2843 77.8929 13.2843ZM76.958 15.3804C78.3456 15.3804 79.6839 14.7112 80.2743 13.5796H80.3333V15.2525H83.1084V7.82283C83.1084 5.65791 81.2879 4.23103 78.503 4.23103C75.7969 4.23103 73.9271 5.65791 73.8484 7.72443H76.4758C76.6136 6.93718 77.3418 6.38611 78.3849 6.38611C79.5658 6.38611 80.2841 6.95687 80.2841 7.99996V8.71833L77.578 8.88561C74.8128 9.0529 73.3072 10.1649 73.3072 12.133C73.3072 14.0716 74.8718 15.3804 76.958 15.3804Z" fill="#ECEBED"/>
<path d="M84.9997 15.2525H87.8732V0.373535H84.9997V15.2525Z" fill="#ECEBED"/>
<path d="M93.9172 13.2843C92.8741 13.2843 92.1952 12.7825 92.1952 11.9854C92.1952 11.1883 92.8348 10.716 94.0353 10.6372L96.3085 10.4798V11.2769C96.3085 12.4577 95.2457 13.2843 93.9172 13.2843ZM92.9824 15.3804C94.3699 15.3804 95.7082 14.7112 96.2987 13.5796H96.3577V15.2525H99.1327V7.82283C99.1327 5.65791 97.3122 4.23103 94.5274 4.23103C91.8212 4.23103 89.9515 5.65791 89.8728 7.72443H92.5002C92.638 6.93718 93.3662 6.38611 94.4093 6.38611C95.5901 6.38611 96.3085 6.95687 96.3085 7.99996V8.71833L93.6023 8.88561C90.8372 9.0529 89.3316 10.1649 89.3316 12.133C89.3316 14.0716 90.8962 15.3804 92.9824 15.3804Z" fill="#ECEBED"/>
<path d="M100.945 15.2525H103.819V9.07259C103.819 7.63586 104.645 6.65181 106.023 6.65181C107.381 6.65181 108.05 7.46858 108.05 8.9053V15.2525H110.924V8.30502C110.924 5.776 109.566 4.26055 107.165 4.26055C105.502 4.26055 104.399 4.98876 103.779 6.35659H103.72V4.418H100.945V15.2525Z" fill="#ECEBED"/>
<path d="M116.741 15.3804C118.336 15.3804 119.585 14.5931 120.117 13.4024H120.166V15.2525H123V0.373535H120.127V6.26803H120.068C119.526 5.06748 118.316 4.29008 116.751 4.29008C114.055 4.29008 112.303 6.42548 112.303 9.82047C112.303 13.2351 114.045 15.3804 116.741 15.3804ZM117.696 6.61245C119.182 6.61245 120.146 7.88188 120.146 9.84015C120.146 11.7984 119.182 13.058 117.696 13.058C116.2 13.058 115.246 11.8181 115.246 9.83031C115.246 7.8622 116.2 6.61245 117.696 6.61245Z" fill="#ECEBED"/>
</svg>
