<svg width="120" height="120" viewBox="0 0 120 120" fill="none" xmlns="http://www.w3.org/2000/svg">
<g opacity="0.8">
<path d="M92.9067 26.3845C63.7242 -2.55657 12.8896 18.4112 12.9732 59.9779C13.001 72.4475 17.9671 84.3985 26.7849 93.2158C35.6026 102.033 47.5541 106.999 60.0242 107.027C102.063 107.107 122.825 55.2571 92.9067 26.3845ZM60.0242 16.413C70.7352 16.4167 81.0654 20.3865 89.0222 27.5566L75.8243 40.7539L74.4112 36.8202C74.2896 36.4825 74.0668 36.1905 73.7733 35.984C73.4797 35.7776 73.1296 35.6666 72.7707 35.6664H47.2778C46.9189 35.6666 46.5688 35.7776 46.2752 35.984C45.9816 36.1905 45.7589 36.4825 45.6373 36.8202L42.22 46.3329H38.3807C36.8033 46.3346 35.291 46.9619 34.1756 48.0772C33.0603 49.1925 32.4329 50.7048 32.4313 52.2821V78.3389C32.4325 79.8807 33.0351 81.3612 34.111 82.4656L27.6023 88.9741C2.54196 61.722 22.6681 16.1139 60.0242 16.413ZM74.9626 48.6642C75.0842 49.0019 75.3069 49.2938 75.6005 49.5003C75.8941 49.7068 76.2442 49.8177 76.6031 49.8179H81.6678C82.321 49.819 82.9472 50.0789 83.409 50.5407C83.8709 51.0026 84.1309 51.6287 84.1319 52.2819V78.3388C84.1309 78.992 83.8709 79.6181 83.409 80.0799C82.9472 80.5418 82.321 80.8017 81.6678 80.8028H40.702L50.4476 71.0576C51.4931 72.43 52.8201 73.563 54.3395 74.3803C55.859 75.1976 57.5357 75.6804 59.2571 75.7963C60.9786 75.9122 62.7049 75.6584 64.3202 75.0521C65.9354 74.4458 67.4023 73.5009 68.6223 72.281C69.8423 71.061 70.7871 69.5942 71.3934 67.9789C71.9997 66.3637 72.2534 64.6374 72.1375 62.9161C72.0216 61.1947 71.5387 59.5181 70.7213 57.9987C69.9039 56.4793 68.7709 55.1524 67.3984 54.107L74.4023 47.1039L74.9626 48.6642ZM51.3689 63.6836C51.3704 62.4315 51.6441 61.1946 52.171 60.0587C52.6979 58.9228 53.4654 57.915 54.4204 57.1051C55.3754 56.2952 56.495 55.7025 57.7017 55.3681C58.9085 55.0338 60.1735 54.9657 61.4091 55.1686L51.5089 65.0684C51.4247 64.6114 51.3779 64.1483 51.3689 63.6836ZM64.935 56.571C65.9627 57.2957 66.8196 58.2362 67.4456 59.3268C68.0717 60.4173 68.4518 61.6316 68.5593 62.8844C68.6668 64.1373 68.4992 65.3985 68.0681 66.5798C67.637 67.7611 66.9529 68.8339 66.0637 69.723C65.1745 70.6122 64.1016 71.2962 62.9203 71.7273C61.739 72.1583 60.4777 72.3259 59.2248 72.2184C57.9719 72.1108 56.7576 71.7307 55.667 71.1046C54.5764 70.4786 53.6359 69.6217 52.9112 68.594L64.935 56.571ZM64.237 52.3408C62.0661 51.553 59.7156 51.4006 57.4611 51.9015C55.2067 52.4024 53.1419 53.5358 51.5089 55.1688C49.8759 56.8017 48.7425 58.8665 48.2417 61.1209C47.7408 63.3753 47.8933 65.7257 48.6812 67.8965L36.5818 79.9949C36.1589 79.5467 35.9213 78.9551 35.9166 78.3389V52.2821C35.9176 51.6289 36.1776 51.0028 36.6394 50.5409C37.1013 50.079 37.7275 49.8191 38.3807 49.8181H43.4452C43.8041 49.8178 44.1542 49.7069 44.4478 49.5004C44.7414 49.294 44.9642 49.002 45.0858 48.6643L48.503 39.1516H71.5453L73.0997 43.4785L64.237 52.3408ZM60.0242 103.541C48.8427 103.54 38.0938 99.22 30.0207 91.4839L37.3235 84.1815C37.6721 84.2487 38.0259 84.2844 38.3808 84.2883H81.6678C83.2452 84.2867 84.7574 83.6594 85.8728 82.544C86.9882 81.4287 87.6155 79.9165 87.6172 78.3392V52.2821C87.6155 50.7048 86.9882 49.1925 85.8728 48.0772C84.7574 46.9619 83.2452 46.3346 81.6678 46.3329H77.8284L77.1268 44.3798L91.5321 29.9751C117.817 57.1229 98.1802 103.648 60.0242 103.541Z" fill="white"/>
<path d="M59.8616 61.4042C60.2577 61.3964 60.6349 61.2336 60.9122 60.9508C61.1895 60.668 61.3449 60.2877 61.3449 59.8916C61.3449 59.4954 61.1895 59.1151 60.9122 58.8323C60.6349 58.5495 60.2577 58.3867 59.8616 58.3789C59.4656 58.3867 59.0884 58.5495 58.8111 58.8323C58.5338 59.1151 58.3784 59.4954 58.3784 59.8916C58.3784 60.2877 58.5338 60.668 58.8111 60.9508C59.0884 61.2336 59.4656 61.3964 59.8616 61.4042Z" fill="white"/>
</g>
</svg>
