<svg width="24" height="25" viewBox="0 0 24 25" fill="none" xmlns="http://www.w3.org/2000/svg">
<path d="M22.6559 6.45323C21.9197 6.82617 21.0608 7.07481 20.202 7.07481C21.0608 6.57754 21.797 5.70733 22.0424 4.71279C21.1835 5.21006 20.3247 5.58301 19.3431 5.70733C18.6069 4.83711 17.5026 4.33984 16.2756 4.33984C13.9443 4.33984 11.9812 6.32891 11.9812 8.69092C11.9812 9.06387 11.9812 9.31251 12.1039 9.68546C8.54563 9.56114 5.35547 7.82071 3.2696 5.21006C2.90151 5.83164 2.65611 6.57754 2.65611 7.44776C2.65611 8.93956 3.3923 10.307 4.61928 11.0529C3.88309 11.0529 3.2696 10.8043 2.65611 10.5557C2.65611 12.6691 4.12849 14.4095 6.09166 14.7824C5.72357 14.9068 5.35547 14.9068 4.98738 14.9068C4.74198 14.9068 4.49658 14.9068 4.12849 14.7824C4.61928 16.5229 6.21436 17.766 8.17753 17.766C6.70515 18.8849 4.86468 19.6308 2.90151 19.6308C2.53341 19.6308 2.16532 19.6308 1.91992 19.6308C3.7604 20.8739 6.09166 21.6198 8.42293 21.6198C16.2756 21.6198 20.5701 15.0311 20.5701 9.31251C20.5701 9.06387 20.5701 8.93956 20.5701 8.69092C21.3062 8.19366 22.0424 7.32344 22.6559 6.45323Z" fill="#FCFCFC"/>
</svg>
