<svg width="42" height="36" viewBox="0 0 42 36" fill="none" xmlns="http://www.w3.org/2000/svg">
<path d="M27.9278 2.67004C27.2831 2.39957 26.5486 2.71387 26.1606 3.29041C25.7086 3.962 25.1264 4.54358 24.4433 4.9992C23.406 5.69111 22.1835 6.06104 20.9322 6.0616C19.681 6.06104 18.4584 5.69111 17.4211 4.9992C16.7379 4.5435 16.1556 3.96179 15.7036 3.29004C15.3157 2.71361 14.5815 2.39928 13.9368 2.66946L2.07698 9.03015C1.43961 9.29726 1.142 10.0248 1.41232 10.655L4.37374 16.3606C4.64392 16.9905 5.37919 17.2846 6.01626 17.0177L9.27091 15.6541L7.95841 33.475C7.95841 34.1594 8.51946 34.7142 9.21156 34.7142H32.8094C33.5015 34.7142 34.0626 34.1594 34.0626 33.475L32.7501 15.7234L35.8438 17.0211C36.4809 17.2883 37.2165 16.9942 37.4868 16.3642L40.5877 10.6587C40.8579 10.0287 40.5605 9.30126 39.9234 9.03399L27.9278 2.67004Z" stroke="#CFCDD4" stroke-width="2"/>
<path d="M25.8514 12.6261H19.0664C18.9819 12.6261 18.9066 12.6791 18.8781 12.7586L15.7762 21.404C15.7294 21.5343 15.826 21.6715 15.9644 21.6715H18.6697C18.7998 21.6715 18.8952 21.7936 18.8638 21.9198L17.2234 28.5096C17.1723 28.7148 17.4333 28.8486 17.57 28.6872L25.9012 18.8546C26.0113 18.7246 25.9189 18.5253 25.7486 18.5253H23.4544C23.3045 18.5253 23.2079 18.3665 23.2768 18.2333L26.029 12.9181C26.0979 12.785 26.0013 12.6261 25.8514 12.6261Z" fill="#CFCDD4"/>
</svg>
