<svg width="77" height="76" viewBox="0 0 77 76" fill="none" xmlns="http://www.w3.org/2000/svg">
<path fill-rule="evenodd" clip-rule="evenodd" d="M76.5 7.6C76.5 5.58457 75.7006 3.65078 74.2749 2.22511C72.8492 0.799433 70.9153 0 68.9 0H8.1C6.08457 0 4.15078 0.799363 2.72511 2.22511C1.29943 3.65078 0.5 5.58474 0.5 7.6V68.4C0.5 70.4154 1.29936 72.3492 2.72511 73.7749C4.15078 75.2006 6.08474 76 8.1 76H68.9C70.9154 76 72.8492 75.2006 74.2749 73.7749C75.7006 72.3492 76.5 70.4153 76.5 68.4V7.6ZM73.46 7.6V68.4C73.46 69.6099 72.9796 70.7682 72.1252 71.6252C71.2682 72.4795 70.1098 72.9599 68.9001 72.9599H8.10007C6.89018 72.9599 5.73182 72.4795 4.87489 71.6252C4.02056 70.7681 3.54014 69.6097 3.54014 68.4V7.6C3.54014 6.39011 4.02056 5.23175 4.87489 4.37482C5.73193 3.52049 6.89032 3.04007 8.10007 3.04007H68.9001C70.11 3.04007 71.2683 3.52049 72.1252 4.37482C72.9796 5.23186 73.46 6.39025 73.46 7.6Z" fill="white"/>
<path fill-rule="evenodd" clip-rule="evenodd" d="M76.5 7.6C76.5 5.58457 75.7006 3.65078 74.2749 2.22511C72.8492 0.799433 70.9153 0 68.9 0H8.1C6.08457 0 4.15078 0.799363 2.72511 2.22511C1.29943 3.65078 0.5 5.58474 0.5 7.6V16.72C0.5 17.5587 1.18129 18.24 2.02 18.24H74.98C75.8187 18.24 76.5 17.5587 76.5 16.72V7.6ZM73.46 7.6V15.2H3.54V7.6C3.54 6.39011 4.02042 5.23175 4.87475 4.37482C5.73179 3.52049 6.89018 3.04007 8.09993 3.04007H68.8999C70.1098 3.04007 71.2682 3.52049 72.1251 4.37482C72.9794 5.23186 73.46 6.39025 73.46 7.6Z" fill="white"/>
<path fill-rule="evenodd" clip-rule="evenodd" d="M11.1401 4.55994C8.62331 4.55994 6.58008 6.60316 6.58008 9.11994C6.58008 11.6367 8.62331 13.6799 11.1401 13.6799C13.6569 13.6799 15.7001 11.6367 15.7001 9.11994C15.7001 6.60316 13.6569 4.55994 11.1401 4.55994ZM11.1401 7.59994C11.9788 7.59994 12.6601 8.28123 12.6601 9.11994C12.6601 9.95865 11.9788 10.6399 11.1401 10.6399C10.3014 10.6399 9.62008 9.95865 9.62008 9.11994C9.62008 8.28123 10.3014 7.59994 11.1401 7.59994Z" fill="white"/>
<path fill-rule="evenodd" clip-rule="evenodd" d="M21.78 4.55994C19.2632 4.55994 17.22 6.60316 17.22 9.11994C17.22 11.6367 19.2632 13.6799 21.78 13.6799C24.2967 13.6799 26.34 11.6367 26.34 9.11994C26.34 6.60316 24.2967 4.55994 21.78 4.55994ZM21.78 7.59994C22.6187 7.59994 23.3 8.28123 23.3 9.11994C23.3 9.95865 22.6187 10.6399 21.78 10.6399C20.9413 10.6399 20.26 9.95865 20.26 9.11994C20.26 8.28123 20.9413 7.59994 21.78 7.59994Z" fill="white"/>
<path fill-rule="evenodd" clip-rule="evenodd" d="M32.42 4.55994C29.9032 4.55994 27.86 6.60316 27.86 9.11994C27.86 11.6367 29.9032 13.6799 32.42 13.6799C34.9368 13.6799 36.98 11.6367 36.98 9.11994C36.98 6.60316 34.9368 4.55994 32.42 4.55994ZM32.42 7.59994C33.2587 7.59994 33.94 8.28123 33.94 9.11994C33.94 9.95865 33.2587 10.6399 32.42 10.6399C31.5813 10.6399 30.9 9.95865 30.9 9.11994C30.9 8.28123 31.5813 7.59994 32.42 7.59994Z" fill="white"/>
<path fill-rule="evenodd" clip-rule="evenodd" d="M46.1556 21.8306C45.3162 21.8306 44.6356 22.5112 44.6356 23.3506C44.6356 26.7373 41.8874 29.4855 38.5007 29.4855C35.1139 29.4855 32.3658 26.7373 32.3658 23.3506C32.3658 22.5112 31.6852 21.8306 30.8458 21.8306H25.1064C24.7936 21.8306 24.4896 21.9276 24.2338 22.1074L14.828 28.6916C14.1413 29.172 13.9737 30.1206 14.4541 30.8074L19.9444 38.6449C20.4248 39.3316 21.3735 39.4992 22.0602 39.0188L23.5863 37.9514V57.793C23.5863 58.6324 24.2642 59.313 25.1063 59.313H51.8913C52.7307 59.313 53.4114 58.6324 53.4114 57.793V37.9479L54.9408 39.018C55.6276 39.4984 56.5762 39.3308 57.0567 38.6441L62.5469 30.8067C63.0274 30.12 62.8598 29.1713 62.173 28.6908L52.7673 22.1067C52.5115 21.9269 52.2075 21.8298 51.8947 21.8298L46.1556 21.8306ZM47.5473 24.8706H51.4178L59.1848 30.3094L55.4397 35.6565L52.7641 33.7837C52.2993 33.4587 51.694 33.4193 51.1898 33.6805C50.6877 33.9418 50.3715 34.4616 50.3715 35.0275V56.2728H26.6265V35.0292C26.6265 34.464 26.3103 33.9442 25.8061 33.6823C25.3039 33.4183 24.6959 33.4604 24.2338 33.7827L21.5616 35.6555L17.8165 30.3084L25.5834 24.8696H29.4539C30.1773 29.2104 33.9556 32.5245 38.5006 32.5245C43.0457 32.5245 46.824 29.2104 47.5473 24.8696L47.5473 24.8706Z" fill="white"/>
<path fill-rule="evenodd" clip-rule="evenodd" d="M35.4321 68.4001H41.5392C42.3779 68.4001 43.0592 67.7188 43.0592 66.8801C43.0592 66.0414 42.3779 65.3601 41.5392 65.3601H35.4321C34.5927 65.3601 33.9121 66.0414 33.9121 66.8801C33.9121 67.7188 34.5927 68.4001 35.4321 68.4001Z" fill="white"/>
<path fill-rule="evenodd" clip-rule="evenodd" d="M47.5921 68.4001H49.1393C49.978 68.4001 50.6593 67.7188 50.6593 66.8801C50.6593 66.0414 49.978 65.3601 49.1393 65.3601H47.5921C46.7528 65.3601 46.0721 66.0414 46.0721 66.8801C46.0721 67.7188 46.7528 68.4001 47.5921 68.4001Z" fill="white"/>
<path fill-rule="evenodd" clip-rule="evenodd" d="M27.8323 68.4001H29.3794C30.2181 68.4001 30.8994 67.7188 30.8994 66.8801C30.8994 66.0414 30.2181 65.3601 29.3794 65.3601H27.8323C26.9929 65.3601 26.3123 66.0414 26.3123 66.8801C26.3123 67.7188 26.9929 68.4001 27.8323 68.4001Z" fill="white"/>
</svg>
